<svg id="Layer_1" data-name="Layer 1" xmlns="http://www.w3.org/2000/svg" viewBox="0 0 128 128"><defs><style>.cls-1{fill:#163f45;}.cls-2{fill:#314a4a;}.cls-3{fill:#48554e;}.cls-4{fill:#5f6252;}.cls-5{fill:#766f55;}.cls-6{fill:#8e7d56;}.cls-7{fill:#a98d57;}.cls-8{fill:#c79e56;}</style></defs><g id="_Radial_Repeat_" data-name="&lt;Radial Repeat&gt;"><path class="cls-1" d="M114.13,38.62s-11.46-19.53-28-25.77c0,0-19.87,7.69-30.56,21.9C55.54,34.75,89.1,27.14,114.13,38.62Z"/></g><g id="_Radial_Repeat_2" data-name="&lt;Radial Repeat&gt;"><path class="cls-2" d="M117.39,81.5s5.71-21.91-1.59-38c0,0-19.49-8.61-37.1-6.13C78.7,37.33,107.81,55.68,117.39,81.5Z"/></g><g id="_Radial_Repeat_3" data-name="&lt;Radial Repeat&gt;"><path class="cls-3" d="M89.38,114.13s19.53-11.46,25.77-28c0,0-7.69-19.87-21.9-30.56C93.25,55.54,100.86,89.1,89.38,114.13Z"/></g><g id="_Radial_Repeat_4" data-name="&lt;Radial Repeat&gt;"><path class="cls-4" d="M46.5,117.39s21.91,5.71,38-1.59c0,0,8.61-19.49,6.13-37.1C90.67,78.7,72.32,107.81,46.5,117.39Z"/></g><g id="_Radial_Repeat_5" data-name="&lt;Radial Repeat&gt;"><path class="cls-5" d="M13.87,89.38s11.46,19.53,28,25.77c0,0,19.87-7.7,30.56-21.9C72.46,93.25,38.9,100.86,13.87,89.38Z"/></g><g id="_Radial_Repeat_6" data-name="&lt;Radial Repeat&gt;"><path class="cls-6" d="M10.61,46.5s-5.71,21.91,1.59,38c0,0,19.49,8.61,37.1,6.13C49.3,90.67,20.19,72.32,10.61,46.5Z"/></g><g id="_Radial_Repeat_7" data-name="&lt;Radial Repeat&gt;"><path class="cls-7" d="M38.62,13.87s-19.53,11.46-25.77,28c0,0,7.69,19.87,21.9,30.56C34.75,72.46,27.14,38.9,38.62,13.87Z"/></g><g id="_Radial_Repeat_8" data-name="&lt;Radial Repeat&gt;"><path class="cls-8" d="M81.5,10.61s-21.91-5.71-38,1.59c0,0-8.61,19.49-6.13,37.1C37.33,49.3,55.68,20.19,81.5,10.61Z"/></g></svg>