<svg id="Layer_1" data-name="Layer 1" xmlns="http://www.w3.org/2000/svg" viewBox="0 0 797.7 278.24"><defs><style>.cls-1{fill:#b1803b;}.cls-2{fill:#145365;}.cls-3{fill:#163f45;}.cls-4{fill:#314a4a;}.cls-5{fill:#48554e;}.cls-6{fill:#5f6252;}.cls-7{fill:#766f55;}.cls-8{fill:#8e7d56;}.cls-9{fill:#a98d57;}.cls-10{fill:#c79e56;}</style></defs><path class="cls-1" d="M710.43,262.33c-8.28,1.61-16.53,3.45-24.86,4.78-16.08,2.57-32.18,5-48.32,7.2-9.38,1.27-18.82,2.26-28.27,2.79-29.48,1.66-59,1.67-88.37-1.05-39.06-3.61-77.07-11.81-113.78-26-19-7.37-38.22-14.57-57.89-19.78a218.19,218.19,0,0,0-88.64-4.46C226.12,230.89,192.09,237,158,242.36a566.9,566.9,0,0,1-107,6.8,353.09,353.09,0,0,1-39.75-3.39c4.92,0,9.86.31,14.76-.05C49.65,244,73.39,242.52,97,240c36.55-3.93,72.29-12.51,108.24-19.92,17.05-3.52,34.4-5.61,51.52-8.81,17.34-3.23,34.85-3.38,52.25-2.42a232.54,232.54,0,0,1,62,11.76c13.68,4.64,27,10.36,40.69,14.86a49.74,49.74,0,0,0,18.56,2.7c14.87-1.06,29.89-2.15,44.4-5.3,15.33-3.32,30.28-8.61,45.1-13.87,8.73-3.1,17.09-3.83,25,.68,21.09,12,41.69,9.09,62.48-.7,8.83-4.16,17.84-8,27-11.37,11.94-4.35,23-1.13,33.1,5.69,18.1,12.2,37.44,21.72,59,25.6,16.81,3,33.88,4.65,50.84,6.86,1.4.18,2.83.14,4.25.21l0,1.24c-3.05,0-6.1,0-9.14,0-27-.28-54-1.33-79.88-10A203.74,203.74,0,0,1,661.89,224c-11.15-5.9-21.47-6-32.73-.37-14.22,7.09-28.55,14.18-44.5,16.87-14.26,2.4-28,.49-40.66-6.29-7.84-4.19-15.11-4.63-23.29-1.46-20,7.78-40.86,12.85-62,16.55a18.89,18.89,0,0,0-2.92,1.36c6.73,1.75,12.14,3.57,17.7,4.53,20.77,3.6,41.49,8.56,62.43,9.94,32.69,2.14,65.56,2.65,98.33,2.18,22.9-.33,45.76-3.45,68.64-5.3,2.48-.2,5-.27,7.45-.4C710.37,261.84,710.4,262.09,710.43,262.33Z"/><path class="cls-2" d="M182.15,12.73h-2.36L181.43.87h42.64l1.64,11.86h-2.36a7.28,7.28,0,0,0-3.13-4.2,10.69,10.69,0,0,0-6-1.55h-5.82V42q0,8.73,3,9.67V53H194.08V51.66q3-.94,3-9.67V7h-5.82a10.69,10.69,0,0,0-6,1.55A7.28,7.28,0,0,0,182.15,12.73Z"/><path class="cls-2" d="M240.09,2.15V.87h17.34V2.15q-3,1.05-3,9.78V23.52h20.87V11.93q0-8.73-3-9.78V.87h17.35V2.15q-3,1.05-3,9.78V42q0,8.73,3,9.67V53H272.33V51.66q3-.94,3-9.67V29.63H254.45V42q0,8.73,3,9.67V53H240.09V51.66q3-.94,3-9.67V11.93Q243.07,3.2,240.09,2.15Z"/><path class="cls-2" d="M320.34,31.41V42q0,8.73,3,9.67V53H306V51.66q3-.94,3-9.67V11.93q0-8.73-3-9.78V.87h21.45q9.06,0,14.44,4.15a13.33,13.33,0,0,1,5.38,11.12,13.73,13.73,0,0,1-2.48,8.15,15.46,15.46,0,0,1-7,5.34,10.88,10.88,0,0,1,4.77,5.06l3,7.3q3.52,8.7,6.4,9.67V53H338.45l-1.2-1.2L331.36,36a7.17,7.17,0,0,0-2.44-3.35,6.16,6.16,0,0,0-3.74-1.2ZM327.43,7h-7.09V25.31h7.09a7.2,7.2,0,0,0,5.76-2.48,9.89,9.89,0,0,0,2.13-6.69,9.91,9.91,0,0,0-2.13-6.69A7.22,7.22,0,0,0,327.43,7Z"/><path class="cls-2" d="M372.2,46.57q-6.54-7.34-6.54-19.63T372.2,7.33Q378.74,0,389.73,0t17.54,7.33q6.56,7.32,6.56,19.61t-6.56,19.63q-6.57,7.35-17.54,7.35T372.2,46.57Zm8.62-34.88q-3.31,5.66-3.31,15.25t3.31,15.27q3.3,5.67,8.91,5.67t8.92-5.65q3.28-5.65,3.29-15.29t-3.29-15.25Q395.37,6,389.73,6T380.82,11.69Z"/><path class="cls-2" d="M476.13,12.22V33.67q0,9.3-5.8,14.78t-15.69,5.47q-9.9,0-15.71-5.47t-5.82-14.78V10.8q0-7.71-3-8.65V.87h17.35V2.15q-3,.94-3,8.58V34.32c0,3.66,1.05,6.55,3.18,8.67s5,3.18,8.67,3.18A11.79,11.79,0,0,0,465,43a11.69,11.69,0,0,0,3.2-8.67V12.14q0-9-3-10V.87h13.86V2.15Q476.13,3.1,476.13,12.22Z"/><path class="cls-2" d="M528.71,46.1V36.69q0-8.55-3.74-9.75V25.6h16.54v1.34q-2.22.94-2.22,9.75V48.17A30.27,30.27,0,0,1,521,53.92q-12.07,0-18.85-7.07t-6.78-19.69q0-12.84,7-20T522,0q9.53,0,16.22,3.78l-1.64,11q-9.2-8.55-15.85-8.55a11.61,11.61,0,0,0-10,5c-2.37,3.3-3.56,8-3.56,14q0,10.33,4.14,16.22a13.23,13.23,0,0,0,11.42,5.89A13.85,13.85,0,0,0,528.71,46.1Z"/><path class="cls-2" d="M557.49,2.15V.87h17.34V2.15q-3,1.05-3,9.78V23.52h20.87V11.93q0-8.73-3-9.78V.87h17.34V2.15q-3,1.05-3,9.78V42q0,8.73,3,9.67V53H589.74V51.66q3-.94,3-9.67V29.63H571.85V42q0,8.73,3,9.67V53H557.49V51.66q3-.94,3-9.67V11.93Q560.47,3.2,557.49,2.15Z"/><path class="cls-2" d="M26.53,102v55.55q0,16.11,5.51,17.86v2.49H0V175.4q5.51-1.74,5.51-17.86V102Q5.51,85.87,0,83.92V81.57H32v2.35Q26.54,85.87,26.53,102Z"/><path class="cls-2" d="M49.23,83.92V81.57H75.62L118.41,141V104.54q0-18.67-5.51-20.62V81.57h25.33v2.35q-5.52,2-5.51,20.76v73.48h-12.5L69,107.43v47.35q0,18.89,5.51,20.62v2.49H49.23V175.4q5.51-1.74,5.5-20.62V102Q54.73,85.87,49.23,83.92Z"/><path class="cls-2" d="M197,81.57q20.28,0,32.41,13.1t12.12,35.06q0,22-12.12,35.06T197,177.89H155V175.4q5.51-1.74,5.51-17.86V102q0-16.12-5.51-18.07V81.57Zm0,85q10.41,0,16.49-10t6.08-26.9q0-16.93-6.08-26.9T197,92.85H181.54V166.6Z"/><path class="cls-2" d="M367.45,83.92V81.57h26.39L436.63,141V104.54q0-18.67-5.51-20.62V81.57h25.32v2.35q-5.51,2-5.5,20.76v73.48h-12.5l-51.18-70.73v47.35q0,18.89,5.51,20.62v2.49H367.45V175.4q5.51-1.74,5.51-20.62V102Q373,85.87,367.45,83.92Z"/><path class="cls-2" d="M499.76,166.6h25.46a21.81,21.81,0,0,0,11-2.48,11.76,11.76,0,0,0,5.68-7h4.43l-2.89,20.76H473.23V175.4q5.5-1.74,5.51-17.86V102q0-16.12-5.51-18.07V81.57h68.65l3,20.82h-4.37a11.89,11.89,0,0,0-5.67-7,21.61,21.61,0,0,0-11-2.52H499.76v30.56H513.4a24.38,24.38,0,0,0,10-1.74q3.84-1.76,4.84-4.84h3.9v24.45h-3.9q-1-3-4.84-4.8a23.85,23.85,0,0,0-10-1.78H499.76Z"/><path class="cls-2" d="M562.22,171.44l3-20.08q17.6,16.78,33.45,16.79,15.52,0,15.52-11.55a11.86,11.86,0,0,0-4.1-9.24q-4.1-3.66-14.71-7.82-17.05-6.45-24.85-14.38A26.36,26.36,0,0,1,562.76,106q0-12.56,9.2-19.28T598.83,80q16.51,0,29.15,7.72l-3,19.88q-15.59-16.19-29-16.18-13.23,0-13.23,10.74a11.79,11.79,0,0,0,4.13,9.24q4.13,3.66,14.87,7.82,17.07,6.45,24.76,14.24a25.92,25.92,0,0,1,7.69,18.88q0,13.15-10.21,20.22t-29.83,7a69.45,69.45,0,0,1-17.29-1.95A55,55,0,0,1,562.22,171.44Z"/><path class="cls-2" d="M678.14,102v55.55q0,16.11,5.51,17.86v2.49h-32V175.4q5.5-1.74,5.51-17.86V102q0-16.12-5.51-18.07V81.57h32v2.35Q678.15,85.87,678.14,102Z"/><path class="cls-2" d="M723,177.89H696.47V175.4q6.12-2.55,12.76-19.14l30.3-74.42,14.3-.94L785,157.54q6.45,16.05,12.56,17.86l.14,2.49H763V175.4q5.91-1.74,2-12.36l-4.36-11h-35.2l-4,9.87q-4.31,10.95,1.54,13.5ZM743.09,106l-13.5,34.79h27Z"/><g id="_Radial_Repeat_" data-name="&lt;Radial Repeat&gt;"><path class="cls-3" d="M350.84,107.09s-10.24-17.45-25-23c0,0-17.75,6.87-27.31,19.56C298.49,103.63,328.48,96.83,350.84,107.09Z"/></g><g id="_Radial_Repeat_2" data-name="&lt;Radial Repeat&gt;"><path class="cls-4" d="M353.75,145.4s5.1-19.58-1.42-34c0,0-17.41-7.69-33.14-5.47C319.19,105.94,345.2,122.33,353.75,145.4Z"/></g><g id="_Radial_Repeat_3" data-name="&lt;Radial Repeat&gt;"><path class="cls-5" d="M328.72,174.55s17.46-10.24,23-25c0,0-6.87-17.75-19.56-27.31C332.19,122.2,339,152.18,328.72,174.55Z"/></g><g id="_Radial_Repeat_4" data-name="&lt;Radial Repeat&gt;"><path class="cls-6" d="M290.42,177.46s19.57,5.1,34-1.42c0,0,7.68-17.42,5.47-33.15C329.88,142.89,313.49,168.9,290.42,177.46Z"/></g><g id="_Radial_Repeat_5" data-name="&lt;Radial Repeat&gt;"><path class="cls-7" d="M261.27,152.43s10.24,17.45,25,23c0,0,17.75-6.88,27.31-19.57C313.62,155.89,283.64,162.7,261.27,152.43Z"/></g><g id="_Radial_Repeat_6" data-name="&lt;Radial Repeat&gt;"><path class="cls-8" d="M258.36,114.12s-5.1,19.58,1.42,34c0,0,17.41,7.69,33.15,5.48C292.93,153.59,266.92,137.2,258.36,114.12Z"/></g><g id="_Radial_Repeat_7" data-name="&lt;Radial Repeat&gt;"><path class="cls-9" d="M283.39,85s-17.45,10.23-23,25c0,0,6.88,17.75,19.57,27.3C279.93,137.32,273.12,107.34,283.39,85Z"/></g><g id="_Radial_Repeat_8" data-name="&lt;Radial Repeat&gt;"><path class="cls-10" d="M321.69,82.07s-19.57-5.11-34,1.42c0,0-7.69,17.41-5.48,33.14C282.23,116.63,298.62,90.62,321.69,82.07Z"/></g></svg>